# xmcd
#
# Track frame offsets:
#	150
#	15112
#	28984
#	40618
#	54100
#	69535
#	85755
#	101204
#	115721
#	131141
#	146256
#	158863
#	173974
#	188533
#	204684
#	216789
#	233364
#	247867
#	260789
#	273845
#	287926
#	303852
#
# Disc length: 4270 seconds
#
# Revision: 1
# Processed by: cddbd v1.5.2PL0 Copyright (c) Steve Scherf et al.
# Submitted via: EZCDAudioConverter 4.0.5.1
#
DISCID=2810ac16
DTITLE=Multi Music Group - Hott Country # 282 CAN
DYEAR=2019
DGENRE=Country
TTITLE0=Kenny Chesney\n - Tip Of My Tongue\n
TTITLE1=James Barker Band\n - There's A Drink For That\n
TTITLE2=Garth Brooks ft. Blake Shelton\n - Dive Bar\n
TTITLE3=Thomas Rhett\n - Remember You Young\n
TTITLE4=Gord Bamford\n - #REDNEK\n
TTITLE5=Miranda Lambert\n - It All Comes Out In The Wash\n
TTITLE6=Kane Brown\n - Homesick\n
TTITLE7=Sons of Daughters\n - What If We Stay\n
TTITLE8=Morgan Wallen\n - Chasin' You\n
TTITLE9=Billy Currington\n - Details\n
TTITLE10=Ryan Langdon\n - Lit In The Sticks\n
TTITLE11=Parmalee\n - Be Alright\n
TTITLE12=Eli Young Band\n - Break It In\n
TTITLE13=Ingrid Andress\n - More Hearts Than Mine\n
TTITLE14=Madeline Merlo\n - Dear Me\n
TTITLE15=Sheryl Crow ft. Stevie Knicks and Maren Morris\n - Prove You Wrong\n
TTITLE16=Walker Hayes\nWalker Hayes\n - Don't Let Her\n
TTITLE17=Genevieve Fisher\n - Outta Towners\n
TTITLE18=Drew Baldridge\n - Middle Of Nowhere Kids\n
TTITLE19=Cale Dodds\n - I Like Where This Is Going\n
TTITLE20=Casey Donahew\n - Let's Make A Love Song\n
TTITLE21=Gone West\n - What Could've Been
EXTD=
EXTT0=
EXTT1=
EXTT2=
EXTT3=
EXTT4=
EXTT5=
EXTT6=
EXTT7=
EXTT8=
EXTT9=
EXTT10=
EXTT11=
EXTT12=
EXTT13=
EXTT14=
EXTT15=
EXTT16=
EXTT17=
EXTT18=
EXTT19=
EXTT20=
EXTT21=
PLAYORDER=
